<svg width="9" height="9" viewBox="0 0 9 9" fill="none" xmlns="http://www.w3.org/2000/svg">
<path d="M8.81991 0.139304C8.74858 0.0709721 8.66173 0.0255929 8.56879 0.00808735C8.47584 -0.00941821 8.38035 0.00161812 8.29266 0.0399994L0.328411 3.50823C0.224314 3.55358 0.136262 3.63508 0.0774281 3.74052C0.0185944 3.84597 -0.00785846 3.96969 0.002027 4.09319C0.0119125 4.21669 0.0576048 4.33332 0.132268 4.42563C0.206932 4.51795 0.306553 4.58098 0.416228 4.60531L2.57795 5.08461V8.04231C2.57687 8.1561 2.60681 8.2676 2.66385 8.36222C2.72089 8.45684 2.80237 8.53016 2.89763 8.5726C2.96144 8.60223 3.02989 8.61759 3.09907 8.6178C3.16668 8.61757 3.23358 8.60246 3.29588 8.57334C3.35818 8.54423 3.41464 8.50168 3.46199 8.44818L4.696 7.08031L6.51677 8.8564C6.61059 8.94877 6.73168 8.99985 6.85717 9C6.91172 8.99994 6.96593 8.99042 7.01783 8.97178C7.10341 8.94169 7.18038 8.88725 7.24105 8.81389C7.30173 8.74053 7.34399 8.65082 7.36361 8.55371L8.98678 0.702505C9.00797 0.600686 9.00362 0.494383 8.97421 0.395108C8.94479 0.295833 8.89143 0.207371 8.81991 0.139304ZM0.345845 4.05933C0.341566 4.01801 0.34998 3.97629 0.369727 3.94092C0.389475 3.90555 0.419404 3.87859 0.454678 3.86441L7.75514 0.685189L2.71052 4.72375L0.483936 4.2301C0.446941 4.22301 0.413185 4.2023 0.388126 4.17131C0.363068 4.14032 0.348171 4.10087 0.345845 4.05933ZM3.21783 8.17763C3.19369 8.20438 3.16293 8.2226 3.12945 8.22998C3.09596 8.23736 3.06126 8.23357 3.02972 8.21908C2.99818 8.2046 2.97123 8.18007 2.95226 8.14861C2.9333 8.11714 2.92318 8.08015 2.92318 8.04231V5.35095L4.43631 6.82698L3.21783 8.17763ZM8.65027 0.617025L7.02706 8.46823C7.02038 8.50053 7.00625 8.53036 6.98605 8.55479C6.96584 8.57922 6.94026 8.59742 6.9118 8.60759C6.88334 8.61777 6.85299 8.61957 6.82372 8.61284C6.79444 8.6061 6.76725 8.59105 6.7448 8.56916L3.02696 4.94245L8.62235 0.462999C8.63708 0.484729 8.64723 0.509836 8.65206 0.53648C8.65689 0.563124 8.65628 0.590677 8.65027 0.617025Z" fill="white"/>
</svg>
