<svg width="9" height="9" viewBox="0 0 9 9" fill="none" xmlns="http://www.w3.org/2000/svg">
<g clip-path="url(#clip0)">
<path d="M4.49999 -0.00976562C2.01346 -0.00976562 -0.00985718 2.01298 -0.00985718 4.4998C-0.00985718 6.98661 2.01346 9.00936 4.49999 9.00936C6.98652 9.00936 9.00983 6.98661 9.00983 4.4998C9.00983 2.01298 6.98652 -0.00976562 4.49999 -0.00976562ZM4.49999 8.70898C2.17911 8.70898 0.29108 6.82067 0.29108 4.4998C0.29108 2.17892 2.17911 0.290609 4.49999 0.290609C6.82086 0.290609 8.70889 2.17892 8.70889 4.4998C8.70889 6.82067 6.82086 8.70898 4.49999 8.70898Z" fill="white"/>
<path d="M5.48437 1.9684H4.734C3.77831 1.95883 3.65625 2.5503 3.65625 3.19043V3.65589H3.23437C3.2153 3.65335 3.1959 3.65523 3.17768 3.6614C3.15946 3.66756 3.1429 3.67785 3.1293 3.69145C3.1157 3.70505 3.10541 3.72161 3.09925 3.73983C3.09308 3.75805 3.0912 3.77745 3.09375 3.79652V4.64027C3.0912 4.65934 3.09308 4.67874 3.09925 4.69696C3.10541 4.71518 3.1157 4.73174 3.1293 4.74534C3.1429 4.75894 3.15946 4.76923 3.17768 4.77539C3.1959 4.78156 3.2153 4.78344 3.23437 4.78089H3.65625V6.89027C3.6539 6.90937 3.65596 6.92876 3.66225 6.94695C3.66854 6.96513 3.67891 6.98164 3.69256 6.99521C3.70621 7.00878 3.72278 7.01905 3.741 7.02523C3.75923 7.03141 3.77863 7.03335 3.79771 7.0309H4.65693C4.7399 7.04046 4.80712 6.97324 4.78068 6.89027L4.78125 4.78089H5.48437C5.50344 4.78344 5.52284 4.78156 5.54106 4.77539C5.55928 4.76923 5.57584 4.75894 5.58944 4.74534C5.60304 4.73174 5.61333 4.71518 5.61949 4.69696C5.62566 4.67874 5.62754 4.65934 5.625 4.64027V3.79652C5.62754 3.77745 5.62566 3.75805 5.61949 3.73983C5.61333 3.72161 5.60304 3.70505 5.58944 3.69145C5.57584 3.67785 5.55928 3.66756 5.54106 3.6614C5.52284 3.65523 5.50344 3.65335 5.48437 3.65589H4.7804L4.78125 3.23402C4.80853 3.0543 4.80853 3.08355 4.97531 3.09339H5.47846C5.51756 3.08468 5.55918 3.08946 5.58843 3.06105C5.61768 3.03265 5.63456 2.99383 5.62471 2.95277V2.10902C5.62731 2.08997 5.62547 2.07057 5.61934 2.05235C5.61321 2.03412 5.60295 2.01756 5.58937 2.00395C5.57579 1.99034 5.55925 1.98005 5.54103 1.97388C5.52282 1.96771 5.50343 1.96584 5.48437 1.9684ZM5.3339 2.7964L4.98121 2.7829C4.54443 2.7829 4.50787 3.01999 4.50787 3.26271L4.50675 3.79596C4.50671 3.8157 4.51057 3.83526 4.5181 3.85352C4.52563 3.87177 4.53669 3.88836 4.55064 3.90234C4.56459 3.91631 4.58115 3.9274 4.59939 3.93497C4.61763 3.94253 4.63719 3.94643 4.65693 3.94643H5.34375V4.4898H4.6575C4.61764 4.4898 4.57941 4.50562 4.5512 4.53377C4.52299 4.56193 4.5071 4.60013 4.50703 4.63999L4.50675 6.74965H3.9375V4.64027C3.9375 4.5573 3.88096 4.49008 3.79771 4.49008H3.375V3.94671H3.79771C3.81745 3.94674 3.837 3.94288 3.85524 3.93535C3.87348 3.92782 3.89006 3.91677 3.90403 3.90283C3.93215 3.87443 3.93721 3.83618 3.93721 3.79624V3.19015C3.93721 2.55958 4.06462 2.25921 4.73371 2.25921H5.33362V2.7964H5.3339Z" fill="white"/>
</g>
<defs>
<clipPath id="clip0">
<rect width="9" height="9" fill="white"/>
</clipPath>
</defs>
</svg>
