<svg width="9" height="9" viewBox="0 0 9 9" fill="none" xmlns="http://www.w3.org/2000/svg">
<g clip-path="url(#clip0)">
<path d="M4.49999 -0.00976562C2.01346 -0.00976562 -0.00985718 2.01298 -0.00985718 4.4998C-0.00985718 6.98661 2.01346 9.00936 4.49999 9.00936C6.98652 9.00936 9.00983 6.98661 9.00983 4.4998C9.00983 2.01298 6.98652 -0.00976562 4.49999 -0.00976562ZM4.49999 8.70898C2.17911 8.70898 0.29108 6.82067 0.29108 4.4998C0.29108 2.17892 2.17911 0.290609 4.49999 0.290609C6.82086 0.290609 8.70889 2.17892 8.70889 4.4998C8.70889 6.82067 6.82086 8.70898 4.49999 8.70898Z" fill="white"/>
<path d="M6.9733 3.10648C7.0045 3.04874 7.03021 2.98819 7.05009 2.92564C7.05929 2.89663 7.05947 2.8655 7.05062 2.83638C7.04176 2.80726 7.02428 2.78151 7.00049 2.76252C6.97669 2.74354 6.9477 2.73222 6.91734 2.73006C6.88698 2.7279 6.85667 2.735 6.83043 2.75042C6.68631 2.83604 6.53031 2.89982 6.36749 2.9397C6.16985 2.76133 5.91316 2.66244 5.64693 2.66211C5.50229 2.66222 5.35916 2.69154 5.22612 2.7483C5.09308 2.80507 4.97287 2.88811 4.87271 2.99245C4.77254 3.0968 4.69447 3.22029 4.64318 3.35554C4.5919 3.49078 4.56845 3.63499 4.57424 3.77952C3.94171 3.69989 3.36412 3.37982 2.96127 2.8857C2.94584 2.86698 2.92611 2.85227 2.90377 2.8428C2.88143 2.83334 2.85714 2.8294 2.83295 2.83134C2.80877 2.83327 2.78541 2.84101 2.76486 2.8539C2.7443 2.86679 2.72716 2.88446 2.7149 2.90539C2.62266 3.06371 2.57252 3.24303 2.56927 3.42624C2.56602 3.60944 2.60977 3.79043 2.69634 3.95192C2.6751 3.9555 2.65471 3.96294 2.63615 3.97386C2.61341 3.98836 2.59469 4.00835 2.58171 4.032C2.56873 4.05564 2.56192 4.08217 2.5619 4.10914C2.5619 4.42836 2.70393 4.72142 2.93287 4.92055L2.92302 4.93039C2.90574 4.94994 2.89385 4.97366 2.88852 4.99921C2.8832 5.02475 2.88462 5.05125 2.89265 5.07608C2.94039 5.22501 3.0201 5.3617 3.1262 5.4766C3.2323 5.5915 3.36223 5.68181 3.5069 5.74123C3.20978 5.88618 2.87728 5.9427 2.54896 5.90408C2.51521 5.90064 2.48128 5.90849 2.45247 5.92641C2.42366 5.94432 2.40161 5.97129 2.38977 6.00308C2.3784 6.03511 2.37819 6.07003 2.38917 6.1022C2.40014 6.13436 2.42167 6.16187 2.45024 6.18027C2.89659 6.46673 3.41584 6.61893 3.94621 6.61874C5.68434 6.61874 6.72327 5.20686 6.72327 3.84195L6.72299 3.79583C6.89144 3.66432 7.03776 3.5067 7.1564 3.32895C7.17436 3.30208 7.1832 3.27014 7.18159 3.23786C7.17999 3.20557 7.16803 3.17466 7.14749 3.1497C7.12695 3.12475 7.09892 3.10707 7.06755 3.09928C7.03617 3.0915 7.00313 3.09402 6.9733 3.10648ZM6.48252 3.60008C6.46211 3.61475 6.44571 3.63431 6.4348 3.65696C6.42389 3.67961 6.41883 3.70463 6.42009 3.72973C6.42177 3.76686 6.42262 3.80455 6.42262 3.84167C6.42262 5.05892 5.49646 6.31808 3.94649 6.31808C3.67005 6.31821 3.39556 6.27181 3.13452 6.18083C3.44716 6.12091 3.74085 5.98685 3.99093 5.78989C4.01527 5.7707 4.03309 5.74445 4.04196 5.71475C4.05082 5.68504 4.05029 5.65332 4.04044 5.62393C4.03059 5.59453 4.0119 5.5689 3.98693 5.55053C3.96196 5.53216 3.93192 5.52195 3.90093 5.5213C3.77966 5.51898 3.66064 5.4882 3.55345 5.43143C3.44627 5.37466 3.35392 5.2935 3.28387 5.19448C3.35502 5.1897 3.42477 5.17789 3.49255 5.15961C3.52536 5.15083 3.55422 5.13119 3.57443 5.1039C3.59464 5.07661 3.605 5.04327 3.60382 5.00933C3.60265 4.97539 3.59001 4.94286 3.56796 4.91703C3.54591 4.8912 3.51576 4.8736 3.48243 4.86711C3.34547 4.83925 3.21866 4.77468 3.11556 4.6803C3.01247 4.58593 2.93697 4.4653 2.89715 4.33133C2.97196 4.35017 3.04874 4.36114 3.12552 4.36367C3.19162 4.36339 3.25293 4.32289 3.27346 4.25933C3.29399 4.19577 3.2698 4.12573 3.21384 4.08861C3.0815 4.00044 2.97961 3.87357 2.92207 3.72532C2.86453 3.57708 2.85416 3.41469 2.89237 3.26033C3.38091 3.7616 4.04059 4.06011 4.73962 4.0962C4.78912 4.09648 4.83243 4.07877 4.86252 4.04248C4.89262 4.0062 4.90415 3.95811 4.89346 3.91198C4.85499 3.74633 4.8722 3.57261 4.94241 3.41772C5.01263 3.26283 5.13193 3.13539 5.28187 3.05514C5.43181 2.97489 5.60402 2.94629 5.77184 2.97377C5.93967 3.00126 6.09376 3.08329 6.21027 3.20717C6.22773 3.2258 6.24965 3.23968 6.27396 3.24751C6.29826 3.25533 6.32416 3.25684 6.34921 3.25189C6.39562 3.24261 6.44146 3.23192 6.48674 3.21955C6.46633 3.23483 6.44511 3.24901 6.42318 3.26202C6.39401 3.27988 6.37181 3.30715 6.36021 3.33933C6.34862 3.3715 6.34834 3.40667 6.35941 3.43903C6.37048 3.47139 6.39224 3.49901 6.42112 3.51735C6.44999 3.53568 6.48425 3.54363 6.51824 3.53989L6.56943 3.53342C6.54124 3.55664 6.51226 3.57887 6.48252 3.60008Z" fill="white"/>
</g>
<defs>
<clipPath id="clip0">
<rect width="9" height="9" fill="white"/>
</clipPath>
</defs>
</svg>
