<svg width="9" height="9" viewBox="0 0 9 9" fill="none" xmlns="http://www.w3.org/2000/svg">
<path d="M4.5 2.4375C4.09208 2.4375 3.69331 2.55846 3.35414 2.78509C3.01496 3.01172 2.7506 3.33384 2.5945 3.71072C2.43839 4.08759 2.39755 4.50229 2.47713 4.90237C2.55671 5.30246 2.75315 5.66996 3.04159 5.95841C3.33004 6.24685 3.69754 6.44329 4.09763 6.52287C4.49771 6.60245 4.91241 6.56161 5.28928 6.4055C5.66616 6.2494 5.98828 5.98504 6.21491 5.64586C6.44154 5.30669 6.5625 4.90792 6.5625 4.5C6.56188 3.95318 6.34438 3.42894 5.95772 3.04228C5.57106 2.65562 5.04682 2.43812 4.5 2.4375ZM4.5 6.1875C4.16624 6.1875 3.83998 6.08853 3.56248 5.9031C3.28497 5.71768 3.06868 5.45413 2.94095 5.14578C2.81323 4.83743 2.77981 4.49813 2.84492 4.17078C2.91004 3.84344 3.07076 3.54276 3.30676 3.30676C3.54276 3.07076 3.84344 2.91004 4.17078 2.84492C4.49813 2.77981 4.83743 2.81323 5.14578 2.94095C5.45413 3.06868 5.71768 3.28497 5.9031 3.56248C6.08853 3.83998 6.1875 4.16624 6.1875 4.5C6.187 4.9474 6.00905 5.37633 5.69269 5.69269C5.37633 6.00905 4.9474 6.187 4.5 6.1875ZM6.5625 0H2.4375C1.79126 0.000731989 1.1717 0.257774 0.714736 0.714736C0.257774 1.1717 0.000731989 1.79126 0 2.4375V6.5625C0.000731989 7.20874 0.257774 7.8283 0.714736 8.28526C1.1717 8.74223 1.79126 8.99927 2.4375 9H6.5625C7.20874 8.99927 7.8283 8.74223 8.28526 8.28526C8.74223 7.8283 8.99927 7.20874 9 6.5625V2.4375C8.99927 1.79126 8.74223 1.1717 8.28526 0.714736C7.8283 0.257774 7.20874 0.000731989 6.5625 0ZM8.625 6.5625C8.62438 7.10932 8.40688 7.63356 8.02022 8.02022C7.63356 8.40688 7.10932 8.62438 6.5625 8.625H2.4375C1.89068 8.62438 1.36644 8.40688 0.979777 8.02022C0.593118 7.63356 0.37562 7.10932 0.375 6.5625V2.4375C0.37562 1.89068 0.593118 1.36644 0.979777 0.979777C1.36644 0.593118 1.89068 0.37562 2.4375 0.375H6.5625C7.10932 0.37562 7.63356 0.593118 8.02022 0.979777C8.40688 1.36644 8.62438 1.89068 8.625 2.4375V6.5625ZM7.3125 2.0625C7.3125 2.13667 7.29051 2.20917 7.2493 2.27084C7.2081 2.33251 7.14953 2.38057 7.08101 2.40895C7.01248 2.43734 6.93708 2.44476 6.86434 2.43029C6.7916 2.41583 6.72478 2.38011 6.67233 2.32766C6.61989 2.27522 6.58418 2.2084 6.56971 2.13566C6.55524 2.06292 6.56266 1.98752 6.59105 1.91899C6.61943 1.85047 6.66749 1.7919 6.72916 1.7507C6.79083 1.70949 6.86333 1.6875 6.9375 1.6875C7.03692 1.68762 7.13223 1.72717 7.20253 1.79747C7.27283 1.86777 7.31238 1.96308 7.3125 2.0625Z" fill="white"/>
</svg>
